/* XPM */
static char *result[] = {
/* columns rows colors chars-per-pixel */
"32 32 241 2 ",
"   c #FF8800",
".  c #FB8500",
"X  c #BB6603",
"o  c #403C1C",
"O  c #2F361F",
"+  c #30361F",
"@  c #323721",
"#  c #303622",
"$  c #49401E",
"%  c #EA8003",
"&  c #FF8900",
"*  c #FD8700",
"=  c #EC8003",
"-  c #D17709",
";  c #595233",
":  c #474D39",
">  c #484E39",
",  c #464D36",
"<  c #344A20",
"1  c #32491D",
"2  c #31491E",
"3  c #464F1B",
"4  c #D57906",
"5  c #ED8103",
"6  c #FE8800",
"7  c #F98500",
"8  c #EC8103",
"9  c #5B4719",
"0  c #595234",
"q  c #D7D7D1",
"w  c #EAEBE8",
"e  c #E9E9E7",
"r  c #EAEAE9",
"t  c #D5E6CE",
"y  c #44CB1B",
"u  c #2EC700",
"i  c #31C903",
"p  c #34B906",
"a  c #444E1B",
"s  c #5D461B",
"d  c #D57100",
"f  c #D57907",
"g  c #444A1B",
"h  c #465939",
"j  c #EAECE8",
"k  c white",
"l  c #ECFDE8",
"z  c #5CE235",
"x  c #44DD17",
"c  c #34D805",
"v  c #32C605",
"b  c #2F581B",
"n  c #D47906",
"m  c #FE8700",
"M  c #EB8003",
"N  c #5C481A",
"B  c #454B1D",
"V  c #399816",
"C  c #4EAE30",
"Z  c #E9F5E6",
"A  c #FDFFFC",
"S  c #ECFCE8",
"D  c #D5F3CC",
"F  c #4ABB29",
"G  c #35B50F",
"H  c #30C603",
"J  c #32B905",
"K  c #444F1B",
"L  c #5C471A",
"P  c #E97F04",
"I  c #473F1E",
"U  c #304420",
"Y  c #37A315",
"T  c #4FBA2F",
"R  c #E9F6E6",
"E  c #EDF8EA",
"W  c #62C046",
"Q  c #4DBC2C",
"!  c #48DB1E",
"~  c #45CC1C",
"^  c #314921",
"/  c #E87F04",
"(  c #473F1C",
")  c #30431E",
"_  c #35A214",
"`  c #4DB92E",
"'  c #E9F6E5",
"]  c #FDFEFC",
"[  c #ECF7E8",
"{  c #E9F7E5",
"}  c #EAFCE5",
"|  c #D4E6CE",
" . c #434B35",
".. c #463E1A",
"X. c #F38100",
"o. c #D37000",
"O. c #F68400",
"+. c #D77A09",
"@. c #5A5233",
"#. c #485939",
"$. c #4DAC2F",
"%. c #62C146",
"&. c #ECECEB",
"*. c #5B614F",
"=. c #585232",
"-. c #E67D03",
";. c #D27000",
":. c #EC7E00",
">. c #D47100",
",. c #EE7E00",
"<. c #C06903",
"1. c #554419",
"2. c #595334",
"3. c #FDFDFC",
"4. c #ECEDEB",
"5. c #5A4719",
"6. c #E57D03",
"7. c #DC7904",
"8. c #453E1C",
"9. c #464D3A",
"0. c #EBFBE6",
"q. c #463F1C",
"w. c #FA8500",
"e. c #5AE133",
"r. c #E8FAE3",
"t. c #EBF7E7",
"y. c #D5F3CD",
"u. c #43D818",
"i. c #45D91B",
"p. c #454C38",
"a. c #5BE134",
"s. c #47D91C",
"d. c #4EBD2D",
"f. c #4CB82D",
"g. c #39B415",
"h. c #4EBC2D",
"j. c #EBECE9",
"k. c #D4F7CA",
"l. c #44D919",
"z. c #30D001",
"x. c #37B312",
"c. c #38B014",
"v. c #4BBC2A",
"b. c #3AB914",
"n. c #38B314",
"m. c #39B016",
"M. c #38B414",
"N. c #33D004",
"B. c #34D605",
"V. c #42DC16",
"C. c #585334",
"Z. c #32D502",
"A. c #33DA03",
"S. c #42DC15",
"D. c #453F1C",
"F. c #2FD400",
"G. c #E27C04",
"H. c #5CE135",
"J. c #44D819",
"K. c #BE6904",
"L. c #413C1C",
"P. c #474D3A",
"I. c #444D36",
"U. c #48401D",
"Y. c #334921",
"T. c #5CE234",
"R. c #483F1D",
"E. c #48401E",
"W. c #30491D",
"Q. c #44DE17",
"!. c #E8FBE3",
"~. c #46DE1A",
"^. c #30491E",
"/. c #31C803",
"(. c #33DB03",
"). c #44DC17",
"_. c #E9FBE3",
"`. c #47DE1C",
"'. c #30C702",
"]. c #30481E",
"[. c #32C306",
"{. c #32D602",
"}. c #2ED800",
"|. c #304520",
" X c #37A715",
".X c #37BA11",
"XX c #EAFBE5",
"oX c #48DF1C",
"OX c #2FC802",
"+X c #2F491E",
"@X c #3A9818",
"#X c #37A915",
"$X c #33CF05",
"%X c #D4F5CB",
"&X c #45CE1C",
"*X c #32B805",
"=X c #454A1D",
"-X c #31501F",
";X c #38B613",
":X c #37B512",
">X c #61C045",
",X c #60C044",
"<X c #5CE334",
"1X c #44CE1A",
"2X c #32591E",
"3X c #38A317",
"4X c #37A216",
"5X c #4EAD31",
"6X c #D6EFCF",
"7X c #49B729",
"8X c #4CB82C",
"9X c #FEFDFE",
"0X c #D4E5CE",
"qX c #44CC1A",
"wX c #31B803",
"eX c #EDF9EA",
"rX c #4BB82B",
"tX c #3AB117",
"yX c #4FB92F",
"uX c #ECF9E9",
"iX c #EEEEED",
"pX c #EAEAE8",
"aX c #D5E2D0",
"sX c #4AAA2C",
"dX c #36A214",
"fX c #37A215",
"gX c #4BAB2E",
"hX c #D7E3D2",
"jX c #D8D7D2",
"kX c #F88400",
"lX c #5A5333",
"zX c #354623",
"xX c #334520",
"cX c #454C37",
"vX c #FC8700",
"bX c #F28100",
"nX c #C86A00",
"mX c #CE6E00",
"MX c #2F3620",
"NX c #C06600",
"BX c #F08000",
/* pixels */
"                  . X o O + + + + @ @ # $ % &                   ",
"                * = - ; : > > > , < 1 2 3 4 5 *         6 7 6   ",
"              & 8 9 0 q w e e r t y u i p a s 8 &       7 d 7   ",
"            * 8 f g h j k k k k l z x c v b a n 8 *     m 7 6   ",
"          & M N B V C Z k k k k A S D F G H J K L M &           ",
"          & P I U Y T R k k k k k k E W Q ! ~ ^ I / & 6 7 6     ",
"          & % ( ) _ ` ' k k k k k k ] [ { } |  ...% & X.o.X.6   ",
"  6 7 m O.M +.@.#.$.%.[ k k k k k k k k k k &.*.=.+.-.;.:.>.7   ",
"  7 >.,.<.1.2.q j Z [ ] k k k k k k k k k k 3.4.q 2.5.6.  7 6   ",
"  6 X.>.7.8.9.w k k k k k k k k A 0.0.A k k k k w 9.q.P &       ",
"    6 w./ ( : e k k k k k k k k S e.e.0.k k k k e : ( P &       ",
"      & P ( : e k k k k A 0.r.t.y.u.i.r.k k k k e : ( P &       ",
"  m 7 & % ..p.e k k k k S a.s.d.f.g.h.t.k k k k e p...% &       ",
"  7 ;.-.+.=.*.j.k k A S k.l.z.x.c.x.v.D S A k k j.*.=.+.8 *     ",
"    6.5.2.q 4.3.k k 0.e.u.b.n.m.M.N.B.V.e.0.k k 3.4.q C.9 M &   ",
"  & P q.9.w k k k k 0.e.u.b.n.m.M.Z.A.S.e.0.k k k k w 9.D.P &   ",
"  & P ( : e k k k k A S k.l.z.n.M.F.x k.S A k k k k e : ( P &   ",
"    G.q.: e k k k k k k S H.l.b.b.J.H.S k k k k k k e : ( P &   ",
"  w.K.L.P.r k k k k k k A S k.u.u.k.S A k k k k k k r P.( P &   ",
"    G.q.I.t l A k k k k k k S e.e.S k k k k k k A l t I.( P &   ",
"  & P U.Y.y z S k k k k k k A 0.0.A k k k k k k 0.T.y Y.R.P &   ",
"  & P E.W.u Q.k.S A k k k k k k k k k k k k k k !.~.u W.E.P &   ",
"  & P E.^./.(.).H.S k k k k k k k k k k k k k k _.`.'.^.E.P &   ",
"  & P E.].[.{.}.).k.S A k k k k k k k k k k k k _.`.'.^.E.P &   ",
"  & P I |. X.XZ.A.x H.0.k k k k k k k k k k k k XXoXOX+XI P &   ",
"  & M N B @X#X$XZ.F.s.r.k k k k ] [ [ ] k k A S %X&X*XK L M &   ",
"    * 8 f =X-X#X;X:Xd.{ k k k k E >X,X[ k k l <X1X2Xa n 8 *     ",
"      & 8 L =X@X3X4X5XZ k k ] E 6X7X8XR 9X&.0XqXwXa s 8 &       ",
"        * 8 f B U ) #.j k k eX%.rXtXyXuXiX*. .^ K n 5 *         ",
"          & 8 N I ( @.q w pXaXsXdXfXgXhXjX=...I L 5 & kXkX6     ",
"            * M P % +.lX: > , zXxXxXzXcXlX+.% P M vXbXnXmX7     ",
"              & & & % ( O + + @ @ @ @ MX( % & & & 7 nXNXBX6     "
};
