/* XPM */
static char *result[] = {
/* columns rows colors chars-per-pixel */
"32 32 245 2 ",
"   c #FF8800",
".  c #F98500",
"X  c #C66A00",
"o  c #B26204",
"O  c #DF7B04",
"+  c #E67E04",
"@  c #E97F04",
"#  c #FC8700",
"$  c #FF8900",
"%  c #E57D03",
"&  c #554419",
"*  c #463F1C",
"=  c #48401C",
"-  c #4A401D",
";  c #48401E",
":  c #5E481A",
">  c #ED8103",
",  c #FE8800",
"<  c #FD8700",
"1  c #EC8103",
"2  c #D77A09",
"3  c #595334",
"4  c #464D3A",
"5  c #474D39",
"6  c #474D3A",
"7  c #444D36",
"8  c #334921",
"9  c #30491D",
"0  c #2F491E",
"q  c #444F1B",
"w  c #D47906",
"e  c #D57100",
"r  c #5B4719",
"t  c #585234",
"y  c #D7D7D1",
"u  c #EAEBE8",
"i  c #E9E9E7",
"p  c #EAEAE9",
"a  c #D5E6CE",
"s  c #44CB1B",
"d  c #2EC700",
"f  c #31C903",
"g  c #34B906",
"h  c #444E1B",
"j  c #5D461B",
"k  c #FE8700",
"l  c #D57907",
"z  c #444A1B",
"x  c #465939",
"c  c #EAECE8",
"v  c white",
"b  c #ECFDE8",
"n  c #5CE235",
"m  c #44DD17",
"M  c #34D805",
"N  c #32C605",
"B  c #2F581B",
"V  c #EB8003",
"C  c #5C481A",
"Z  c #454B1D",
"A  c #399816",
"S  c #4EAE30",
"D  c #E9F5E6",
"F  c #FDFFFC",
"G  c #ECFCE8",
"H  c #D5F3CC",
"J  c #4ABB29",
"K  c #35B50F",
"L  c #30C603",
"P  c #32B905",
"I  c #5C471A",
"U  c #E87F04",
"Y  c #473F1E",
"T  c #304420",
"R  c #37A315",
"E  c #4FBA2F",
"W  c #E9F6E6",
"Q  c #EDF8EA",
"!  c #62C046",
"~  c #4DBC2C",
"^  c #48DB1E",
"/  c #45CC1C",
"(  c #314921",
")  c #F38100",
"_  c #D37000",
"`  c #EA8003",
"'  c #473F1C",
"]  c #30431E",
"[  c #35A214",
"{  c #4DB92E",
"}  c #E9F6E5",
"|  c #FDFEFC",
" . c #ECF7E8",
".. c #E9F7E5",
"X. c #EAFCE5",
"o. c #D4E6CE",
"O. c #434B35",
"+. c #463E1A",
"@. c #FC8600",
"#. c #D47100",
"$. c #EC7E00",
"%. c #D27000",
"&. c #E67D03",
"*. c #5A5233",
"=. c #485939",
"-. c #4DAC2F",
";. c #62C146",
":. c #ECECEB",
">. c #5B614F",
",. c #585232",
"<. c #F68400",
"1. c #DF7A03",
"2. c #FDFDFC",
"3. c #ECEDEB",
"4. c #585334",
"5. c #FA8500",
"6. c #EBFBE6",
"7. c #453F1C",
"8. c #5AE133",
"9. c #E8FAE3",
"0. c #EBF7E7",
"q. c #D5F3CD",
"w. c #43D818",
"e. c #45D91B",
"r. c #454C38",
"t. c #5BE134",
"y. c #47D91C",
"u. c #4EBD2D",
"i. c #4CB82D",
"p. c #39B415",
"a. c #4EBC2D",
"s. c #EBECE9",
"d. c #D4F7CA",
"f. c #44D919",
"g. c #30D001",
"h. c #37B312",
"j. c #38B014",
"k. c #4BBC2A",
"l. c #3AB914",
"z. c #38B314",
"x. c #39B016",
"c. c #38B414",
"v. c #33D004",
"b. c #34D605",
"n. c #42DC16",
"m. c #32D502",
"M. c #33DA03",
"N. c #42DC15",
"B. c #E27C04",
"V. c #2FD400",
"C. c #BE6904",
"Z. c #413C1C",
"A. c #5CE135",
"S. c #44D819",
"D. c #483F1D",
"F. c #5CE234",
"G. c #44DE17",
"H. c #E8FBE3",
"J. c #46DE1A",
"K. c #30491E",
"L. c #31C803",
"P. c #33DB03",
"I. c #44DC17",
"U. c #E9FBE3",
"Y. c #47DE1C",
"T. c #30C702",
"R. c #30481E",
"E. c #32C306",
"W. c #32D602",
"Q. c #2ED800",
"!. c #304520",
"~. c #37A715",
"^. c #37BA11",
"/. c #EAFBE5",
"(. c #48DF1C",
"). c #2FC802",
"_. c #3A9818",
"`. c #37A915",
"'. c #33CF05",
"]. c #D4F5CB",
"[. c #45CE1C",
"{. c #32B805",
"}. c #454A1D",
"|. c #31501F",
" X c #38B613",
".X c #37B512",
"XX c #61C045",
"oX c #60C044",
"OX c #5CE334",
"+X c #44CE1A",
"@X c #32591E",
"#X c #38A317",
"$X c #37A216",
"%X c #4EAD31",
"&X c #D6EFCF",
"*X c #49B729",
"=X c #4CB82C",
"-X c #FEFDFE",
";X c #D4E5CE",
":X c #44CC1A",
">X c #31B803",
",X c #5D471B",
"<X c #31441E",
"1X c #495938",
"2X c #EDF9EA",
"3X c #4BB82B",
"4X c #3AB117",
"5X c #4FB92F",
"6X c #ECF9E9",
"7X c #EEEEED",
"8X c #D57906",
"9X c #EC8003",
"0X c #F68300",
"qX c #F88400",
"wX c #463F1E",
"eX c #33371F",
"rX c #464A36",
"tX c #D4D5D0",
"yX c #D4E0CF",
"uX c #4AA92C",
"iX c #36A114",
"pX c #4BAA2E",
"aX c #D5E2D0",
"sX c #D7D6D1",
"dX c #595232",
"fX c #473F1A",
"gX c #F58200",
"hX c #C86A00",
"jX c #CE6E00",
"kX c #D27607",
"lX c #453F1E",
"zX c #333A24",
"xX c #484E39",
"cX c #4B513C",
"vX c #4B503C",
"bX c #484F39",
"nX c #354823",
"mX c #33471F",
"MX c #474F39",
"NX c #5C5536",
"BX c #D5790A",
"VX c #E77F04",
"CX c #E98004",
"ZX c #C06600",
"AX c #F08000",
/* pixels */
"                  . X o O + + + + + + + @ #                     ",
"                  $ % & * = = = = - - ; : > $           , . ,   ",
"                < 1 2 3 4 5 5 6 7 8 9 0 q w 1 <         . e .   ",
"              $ 1 r t y u i i p a s d f g h j 1 $       k . ,   ",
"            < 1 l z x c v v v v b n m M N B h w 1 <             ",
"          $ V C Z A S D v v v v F G H J K L P q I V $ , . ,     ",
"          $ U Y T R E W v v v v v v Q ! ~ ^ / ( Y @   ) _ ) ,   ",
"  , . k . $ ` ' ] [ { } v v v v v v |  ...X.o.O.+.` @.#.$.#..   ",
"  . #.$.%.&.2 *.=.-.;. .v v v v v v v v v v :.>.,.2 V <.k . ,   ",
"  , ) #.1.r 3 y c D  .| v v v v v v v v v v 2.3.y 4.r V $       ",
"    , 5.U * 4 u v v v v v v v v F 6.6.F v v v v u 4 7.@ $       ",
"      $ @ ' 5 i v v v v v v v v G 8.8.6.v v v v i 5 ' @ $       ",
"  , .   @ ' 5 i v v v v F 6.9.0.q.w.e.9.v v v v i 5 ' @ $       ",
"  . e @.` +.r.i v v v v G t.y.u.i.p.a.0.v v v v i r.+.` $       ",
"  , <.V 2 ,.>.s.v v F G d.f.g.h.j.h.k.H G F v v s.>.,.2 1 <     ",
"  $ V r 4.y 3.2.v v 6.8.w.l.z.x.c.v.b.n.8.6.v v 2.3.y 4.r V $   ",
"  $ @ * 4 u v v v v 6.8.w.l.z.x.c.m.M.N.8.6.v v v v u 4 7.@ $   ",
"    B.* 5 i v v v v F G d.f.g.z.c.V.m d.G F v v v v i 5 ' @ $   ",
"  5.C.Z.5 i v v v v v v G A.f.l.l.S.A.G v v v v v v i 5 ' @ $   ",
"    B.* 6 p v v v v v v F G d.w.w.d.G F v v v v v v p 6 ' @ $   ",
"  $ @ ' 7 a b F v v v v v v G 8.8.G v v v v v v F b a 7 ' @ $   ",
"  $ @ D.8 s n G v v v v v v F 6.6.F v v v v v v 6.F.s 8 D.@ $   ",
"  $ @ ; 9 d G.d.G F v v v v v v v v v v v v v v H.J.d 9 ; @ $   ",
"  $ @ ; K.L.P.I.A.G v v v v v v v v v v v v v v U.Y.T.K.; @ $   ",
"  $ @ ; R.E.W.Q.I.d.G F v v v v v v v v v v v v U.Y.T.K.; @ $   ",
"  $ @ Y !.~.^.m.M.m A.6.v v v v v v v v v v v v /.(.).0 Y @ $   ",
"  $ V C Z _.`.'.m.V.y.9.v v v v |  . .| v v F G ].[.{.q I V $   ",
"    < 1 l }.|.`. X.Xu...v v v v Q XXoX .v v b OX+X@Xh w 1 <     ",
"      $ 1 I }._.#X$X%XD v v | Q &X*X=XW -X:.;X:X>Xh ,X> $       ",
"        < 1 l Z T <X1Xc v v 2X;.3X4X5X6X7X>.O.( q 8X9X0XqX,     ",
"          $ > : wXeXrXtXi i yXuXiX$XpXaXsXdXfXD.: 9XgXhXjX.     ",
"            # ` kXlXzXxXcXvXbXnXmXmXnXMXNXBXVX+ CX0XhXZXAX,     "
};
