/* XPM */
static char *result[] = {
/* columns rows colors chars-per-pixel */
"32 32 248 2 ",
"   c #FF8800",
".  c #FF8900",
"X  c #EA8003",
"o  c #473F1C",
"O  c #2F361F",
"+  c #30361F",
"@  c #323721",
"#  c #303622",
"$  c #49401E",
"%  c #FD8700",
"&  c #EC8103",
"*  c #D77A09",
"=  c #5A5333",
"-  c #474D39",
";  c #484E39",
":  c #464D36",
">  c #344A20",
",  c #32491D",
"<  c #31491E",
"1  c #464F1B",
"2  c #D57906",
"3  c #ED8103",
"4  c #FE8800",
"5  c #F98500",
"6  c #5B4719",
"7  c #585234",
"8  c #D7D7D1",
"9  c #EAEBE8",
"0  c #E9E9E7",
"q  c #EAEAE9",
"w  c #D5E6CE",
"e  c #44CB1B",
"r  c #2EC700",
"t  c #31C903",
"y  c #34B906",
"u  c #444E1B",
"i  c #5D461B",
"p  c #D57100",
"a  c #D57907",
"s  c #444A1B",
"d  c #465939",
"f  c #EAECE8",
"g  c white",
"h  c #ECFDE8",
"j  c #5CE235",
"k  c #44DD17",
"l  c #34D805",
"z  c #32C605",
"x  c #2F581B",
"c  c #D47906",
"v  c #FE8700",
"b  c #EB8003",
"n  c #5C481A",
"m  c #454B1D",
"M  c #399816",
"N  c #4EAE30",
"B  c #E9F5E6",
"V  c #FDFFFC",
"C  c #ECFCE8",
"Z  c #D5F3CC",
"A  c #4ABB29",
"S  c #35B50F",
"D  c #30C603",
"F  c #32B905",
"G  c #444F1B",
"H  c #5C471A",
"J  c #E97F04",
"K  c #473F1E",
"L  c #304420",
"P  c #37A315",
"I  c #4FBA2F",
"U  c #E9F6E6",
"Y  c #EDF8EA",
"T  c #62C046",
"R  c #4DBC2C",
"E  c #48DB1E",
"W  c #45CC1C",
"Q  c #314921",
"!  c #30431E",
"~  c #35A214",
"^  c #4DB92E",
"/  c #E9F6E5",
"(  c #FDFEFC",
")  c #ECF7E8",
"_  c #E9F7E5",
"`  c #EAFCE5",
"'  c #D4E6CE",
"]  c #434B35",
"[  c #463E1A",
"{  c #F28100",
"}  c #D37000",
"|  c #F38100",
" . c #FC8700",
".. c #5A5233",
"X. c #485939",
"o. c #4DAC2F",
"O. c #62C146",
"+. c #ECECEB",
"@. c #5B614F",
"#. c #585232",
"$. c #F68400",
"%. c #D47100",
"&. c #EC7E00",
"*. c #DF7A03",
"=. c #595334",
"-. c #FDFDFC",
";. c #ECEDEB",
":. c #585334",
">. c #FA8500",
",. c #F48200",
"<. c #BD6804",
"1. c #3F3B1C",
"2. c #464D3A",
"3. c #EBFBE6",
"4. c #453F1C",
"5. c #E27C04",
"6. c #463F1C",
"7. c #5AE133",
"8. c #E98004",
"9. c #E8FAE3",
"0. c #EBF7E7",
"q. c #D5F3CD",
"w. c #43D818",
"e. c #45D91B",
"r. c #FC8600",
"t. c #E97F03",
"y. c #454C38",
"u. c #5BE134",
"i. c #47D91C",
"p. c #4EBD2D",
"a. c #4CB82D",
"s. c #39B415",
"d. c #4EBC2D",
"f. c #C26A03",
"g. c #D17609",
"h. c #595232",
"j. c #EBECE9",
"k. c #D4F7CA",
"l. c #44D919",
"z. c #30D001",
"x. c #37B312",
"c. c #38B014",
"v. c #4BBC2A",
"b. c #554419",
"n. c #3AB914",
"m. c #38B314",
"M. c #39B016",
"N. c #38B414",
"B. c #33D004",
"V. c #34D605",
"C. c #42DC16",
"Z. c #32D502",
"A. c #33DA03",
"S. c #42DC15",
"D. c #2FD400",
"F. c #5CE135",
"G. c #44D819",
"H. c #474D3A",
"J. c #444D36",
"K. c #483F1D",
"L. c #334921",
"P. c #5CE234",
"I. c #48401E",
"U. c #30491D",
"Y. c #44DE17",
"T. c #E8FBE3",
"R. c #46DE1A",
"E. c #30491E",
"W. c #31C803",
"Q. c #33DB03",
"!. c #44DC17",
"~. c #E9FBE3",
"^. c #47DE1C",
"/. c #30C702",
"(. c #30481E",
"). c #32C306",
"_. c #32D602",
"`. c #2ED800",
"'. c #423C1E",
"]. c #BE6904",
"[. c #304520",
"{. c #37A715",
"}. c #37BA11",
"|. c #EAFBE5",
" X c #48DF1C",
".X c #2FC802",
"XX c #2F491E",
"oX c #463E1E",
"OX c #3A9818",
"+X c #37A915",
"@X c #33CF05",
"#X c #D4F5CB",
"$X c #45CE1C",
"%X c #32B805",
"&X c #454A1D",
"*X c #31501F",
"=X c #38B613",
"-X c #37B512",
";X c #61C045",
":X c #60C044",
">X c #5CE334",
",X c #44CE1A",
"<X c #32591E",
"1X c #38A317",
"2X c #37A216",
"3X c #4EAD31",
"4X c #D6EFCF",
"5X c #49B729",
"6X c #4CB82C",
"7X c #FEFDFE",
"8X c #D4E5CE",
"9X c #44CC1A",
"0X c #31B803",
"qX c #EDF9EA",
"wX c #4BB82B",
"eX c #3AB117",
"rX c #4FB92F",
"tX c #ECF9E9",
"yX c #EEEEED",
"uX c #5D614F",
"iX c #444C35",
"pX c #324921",
"aX c #EAEAE8",
"sX c #D5E2D0",
"dX c #4AAA2C",
"fX c #36A214",
"gX c #37A215",
"hX c #4BAB2E",
"jX c #D7E3D2",
"kX c #D6D6D3",
"lX c #444A35",
"zX c #32361E",
"xX c #443E1E",
"cX c #5D481A",
"vX c #F88400",
"bX c #354623",
"nX c #334520",
"mX c #464B37",
"MX c #333A24",
"NX c #46401E",
"BX c #D57807",
"VX c #C86A00",
"CX c #CE6E00",
"ZX c #30371F",
"AX c #303721",
"SX c #49411D",
"DX c #C06600",
"FX c #F08000",
/* pixels */
"                . X o O + + + + @ @ # $ X .                     ",
"              % & * = - ; ; ; : > , < 1 2 3 %           4 5 4   ",
"            . & 6 7 8 9 0 0 q w e r t y u i & .         5 p 5   ",
"          % & a s d f g g g g h j k l z x u c & %       v 5 4   ",
"        . b n m M N B g g g g V C Z A S D F G H b .             ",
"        . J K L P I U g g g g g g Y T R E W Q K J .   4 5 4     ",
"        . X o ! ~ ^ / g g g g g g ( ) _ ` ' ] [ X .   { } | 4   ",
"  4 5  .& * ..X.o.O.) g g g g g g g g g g +.@.#.* 3 $.%.&.%.5   ",
"  5 p *.6 =.8 f B ) ( g g g g g g g g g g -.;.8 :.6 X >.v 5 4   ",
"  4 ,.<.1.2.9 g g g g g g g g V 3.3.V g g g g 9 2.4.J .         ",
"      5.6.- 0 g g g g g g g g C 7.7.3.g g g g 0 - o J .         ",
"    . 8.o - 0 g g g g V 3.9.0.q.w.e.9.g g g g 0 - o J .         ",
"  4 r.t.[ y.0 g g g g C u.i.p.a.s.d.0.g g g g 0 y.[ X .         ",
"  $.f.g.h.@.j.g g V C k.l.z.x.c.x.v.Z C V g g j.@.#.* & %       ",
". X b.7 8 ;.-.g g 3.7.w.n.m.M.N.B.V.C.7.3.g g -.;.8 :.6 b .     ",
". J 6.2.9 g g g g 3.7.w.n.m.M.N.Z.A.S.7.3.g g g g 9 2.4.J .     ",
". J o - 0 g g g g V C k.l.z.m.N.D.k k.C V g g g g 0 - o J .     ",
". J o - 0 g g g g g g C F.l.n.n.G.F.C g g g g g g 0 - o J .     ",
". J o H.q g g g g g g V C k.w.w.k.C V g g g g g g q H.o J .     ",
". J o J.w h V g g g g g g C 7.7.C g g g g g g V h w J.o J .     ",
". J K.L.e j C g g g g g g V 3.3.V g g g g g g 3.P.e L.K.J .     ",
". J I.U.r Y.k.C V g g g g g g g g g g g g g g T.R.r U.I.J .     ",
". J I.E.W.Q.!.F.C g g g g g g g g g g g g g g ~.^./.E.K 5.      ",
". J I.(.)._.`.!.k.C V g g g g g g g g g g g g ~.^./.< '.].>.    ",
". J K [.{.}.Z.A.k F.3.g g g g g g g g g g g g |. X.XXXoX5.      ",
". b n m OX+X@XZ.D.i.9.g g g g ( ) ) ( g g V C #X$X%XG n b .     ",
"  % & a &X*X+X=X-Xp._ g g g g Y ;X:X) g g h >X,X<Xu c & %       ",
"    . & H &XOX1X2X3XB g g ( Y 4X5X6XU 7X+.8X9X0Xu i & .         ",
"      % & a m L ! X.f g g qXO.wXeXrXtXyXuXiXpXG c & %           ",
"        . & n K o ..8 9 aXsXdXfXgXhXjXkXlXzXxXcX& .   vXvX4     ",
"          % b J X * = - ; : bXnXnXbX: mXMXNXBX3 %   { VXCX5     ",
"            . . . X o O + + @ @ @ @ + ZXAXSXX .   vXVXDXFX4     "
};
