/* XPM */
static char *_f41a29586cc45e0afad781230cb80c4xLPHD6kQWDIkOHYy[] = {
/* columns rows colors chars-per-pixel */
"32 32 9 1 ",
"  c #323821",
". c #BA6300",
"X c #39B016",
"o c #31D900",
"O c #FF8800",
"+ c #DF9A39",
"@ c #D8B78F",
"# c #FFD7A8",
"$ c white",
/* pixels */
"OOOO                        OOOO",
"OOOO                        OOOO",
"OO    XXXXXXXXXXooooXXXXXXoo  OO",
"OO    XXXXXXXXXXooooXXXXXXoo  OO",
"  ++  XX$$  $$XXoo  oooooo    OO",
"  ++  XX$$  $$XXoo  oooooo    OO",
"  ++  XX$$  $$XXoooooooooooo  OO",
"  ++  XX$$  $$XXoooooooooooo  OO",
"      XX$$$$$$XXoooooooooooo  OO",
"      XX$$$$$$XXoooooooooooo  OO",
"OO  ++  XXXXXXXXoooooooooooo  OO",
"OO  ++  XXXXXXXXoooooooooooo  OO",
"OO  ++  XXXXXXXXXXoooooo      OO",
"OO  ++  XXXXXXXXXXoooooo      OO",
"OO      XXXXXXoooooo    OOOOOOOO",
"OO      XXXXXXoooooo    OOOOOOOO",
"OOOOOO    XXXXoooooooo  OOOOOOOO",
"OOOOOO    XXXXoooooooo  OOOOOOOO",
"OO.OOOO.  XX@@########  OOOOOOOO",
"OOOOOO.O  XX@@########  OOOOOOOO",
"OOOO    ooXX@@########  OOOOOOOO",
"OOOO    ooXX@@########  OOOOOOOO",
"OOOO  ooXXXX@@########  OOO.OOOO",
"OOOO  ooXXXX@@########  OOOO.OOO",
"OOOO    XXXXXXoo@@@@oo  OOO.OOOO",
"OOOO    XXXXXXoo@@@@oo  OOOOOOOO",
"OOOOOOOO  XXoooooooooo  OOOOOOOO",
"OOOOOO.O  XXoooooooooo  OOOOOOOO",
"OOOOOOO.  XXoo    XXoo  OOOOOOOO",
"OOOOOOOO  XXoo    XXoo  OOOOOOOO",
"OOOOOOOO      OO      OOOOO..OOO",
"OOOOOOOO      OO      OOOO..OOOO"
};
