/* XPM */
static char *result[] = {
/* columns rows colors chars-per-pixel */
"32 32 9 1 ",
"  c #323821",
". c #BA6300",
"X c #39B016",
"o c #31D900",
"O c #FF8800",
"+ c #DF9A39",
"@ c #D8B78F",
"# c #FFD7A8",
"$ c white",
/* pixels */
"OOOO                        OOOO",
"OOOO                        OOOO",
"OO  ooooooooooooooXXXXXXXX    OO",
"OO  ooooooooooooooXXXXXXXX    OO",
"OO  ooXXXXXXooooXXXXXXXXXX  ++  ",
"OO  ooXXXXXXooooXXXXXXXXXX  ++  ",
"OO    oooooo  ooXX$$  $$XX  ++  ",
"OO    oooooo  ooXX$$  $$XX  ++  ",
"OO  ooooooooooooXX$$  $$XX      ",
"OO  ooooooooooooXX$$  $$XX      ",
"OO  ooooooooooooXX$$$$$$  ++  OO",
"OO  ooooooooooooXX$$$$$$  ++  OO",
"OO  ooooooooooooXXXXXXXX  ++  OO",
"OO  ooooooooooooXXXXXXXX  ++  OO",
"OO          ooXXXXXXXXXX      OO",
"OO          ooXXXXXXXXXX      OO",
"OOOOOOOO  ooooooooXXXX    OOOOOO",
"OOOOOOOO  ooooooooXXXX    OOOOOO",
"OO.OOOO.  ########@@XX  OOOOOOOO",
"OOOOOO.O  ########@@XX  OOOOOOOO",
"OOOOOOO.  ########@@XX      OOOO",
"OOOOOOOO  ########@@XX      OOOO",
"OOOOOOOO  ########@@XXoooo  OOOO",
"OOOOOOOO  ########@@XXoooo  .OOO",
"OOOOOOOO  oo@@@@ooXXXXXX    OOOO",
"OOOOOOOO  oo@@@@ooXXXXXX    OOOO",
"OOOOOOOO  ooooooooooXX    OOOOOO",
"OOOOOO.O  ooooooooooXX    OOOOOO",
"OOOOOOO.  ooXX    ooXX  OOOOOOOO",
"OOOOOOOO  ooXX    ooXX  OOOOOOOO",
"OOOOOOOOOO      OO      OOO..OOO",
"OOOOOOOOOO      OO      OO..OOOO"
};
