/* XPM */
static char *_18892aa0caf4f0f82bf3c4caf952d99TPfu0Bi1KCZQAKH8[] = {
/* columns rows colors chars-per-pixel */
"32 32 9 1 ",
"  c #323821",
". c #BA6300",
"X c #39B016",
"o c #31D900",
"O c #FF8800",
"+ c #DF9A39",
"@ c #D8B78F",
"# c #FFD7A8",
"$ c white",
/* pixels */
"OOOO                        OOOO",
"OOOO                        OOOO",
"OO    XXXXXXXXoooooooooooooo  OO",
"OO    XXXXXXXXoooooooooooooo  OO",
"  ++  XXXXXXXXXXooooXXXXXXoo  OO",
"  ++  XXXXXXXXXXooooXXXXXXoo  OO",
"  ++  XX$$  $$XXoo  oooooo    OO",
"  ++  XX$$  $$XXoo  oooooo    OO",
"      XX$$  $$XXoooooooooooo  OO",
"      XX$$  $$XXoooooooooooo  OO",
"OO  ++  $$$$$$XXoooooooooooo  OO",
"OO  ++  $$$$$$XXoooooooooooo  OO",
"OO  ++  XXXXXXXXoooooooooooo  OO",
"OO  ++  XXXXXXXXoooooooooooo  OO",
"OO      XXXXXXXXXXoo          OO",
"OO      XXXXXXXXXXoo          OO",
"OOOOOO    XXXXoooooooo  OOOOOOOO",
"OOOOOO    XXXXoooooooo  OOOOOOOO",
"OO.OOOO.  XX@@########  OOOOOOOO",
"OOOOOO.O  XX@@########  OOOOOOOO",
"OOOO      XX@@########  OOOOOOOO",
"OOOO      XX@@########  OOOOOOOO",
"OOOO  ooooXX@@########  OOO.OOOO",
"OOOO  ooooXX@@########  OOOO.OOO",
"OOOO    XXXXXXoo@@@@oo  OOO.OOOO",
"OOOO    XXXXXXoo@@@@oo  OOOOOOOO",
"OOOOOO    XXoooooooooo  OOOOOOOO",
"OOOOOO    XXoooooooooo  OOOOOOOO",
"OOOOOOO.  XXoo    XXoo  OOOOOOOO",
"OOOOOOOO  XXoo    XXoo  OOOOOOOO",
"OOOOOOOO      OO      OOOOO..OOO",
"OOOOOOOO      OO      OOOO..OOOO"
};
