/* XPM */
static char *_13dcccd7777457af11e0fac55a0a322FTTWGBAi0W2jaZ7u[] = {
/* columns rows colors chars-per-pixel */
"32 32 9 1 ",
"  c #323821",
". c #BA6300",
"X c #39B016",
"o c #31D900",
"O c #FF8800",
"+ c #DF9A39",
"@ c #D8B78F",
"# c #FFD7A8",
"$ c white",
/* pixels */
"OOOO                        OOOO",
"OOOO                        OOOO",
"OO  ooXXXXXXooooXXXXXXXXXX    OO",
"OO  ooXXXXXXooooXXXXXXXXXX    OO",
"OO    oooooo  ooXX$$  $$XX  ++  ",
"OO    oooooo  ooXX$$  $$XX  ++  ",
"OO  ooooooooooooXX$$  $$XX  ++  ",
"OO  ooooooooooooXX$$  $$XX  ++  ",
"OO  ooooooooooooXX$$$$$$XX      ",
"OO  ooooooooooooXX$$$$$$XX      ",
"OO  ooooooooooooXXXXXXXX  ++  OO",
"OO  ooooooooooooXXXXXXXX  ++  OO",
"OO      ooooooXXXXXXXXXX  ++  OO",
"OO      ooooooXXXXXXXXXX  ++  OO",
"OOOOOOOO    ooooooXXXXXX      OO",
"OOOOOOOO    ooooooXXXXXX      OO",
"OOOOOOOO  ooooooooXXXX    OOOOOO",
"OOOOOOOO  ooooooooXXXX    OOOOOO",
"OO.OOOO.  ########@@XX  OOOOOOOO",
"OOOOOO.O  ########@@XX  OOOOOOOO",
"OOOOOOO.  ########@@XXoo    OOOO",
"OOOOOOOO  ########@@XXoo    OOOO",
"OOOOOOOO  ########@@XXXXoo  OOOO",
"OOOOOOOO  ########@@XXXXoo  .OOO",
"OOOOOOOO  oo@@@@ooXXXXXX    OOOO",
"OOOOOOOO  oo@@@@ooXXXXXX    OOOO",
"OOOOOOOO  ooooooooooXX  OOOOOOOO",
"OOOOOO.O  ooooooooooXX  OOOOOOOO",
"OOOOOOO.  ooXX    ooXX  OOOOOOOO",
"OOOOOOOO  ooXX    ooXX  OOOOOOOO",
"OOOOOOOOOO      OO      OOO..OOO",
"OOOOOOOOOO      OO      OO..OOOO"
};
