/* XPM */
static char *result[] = {
/* columns rows colors chars-per-pixel */
"32 32 178 2 ",
"   c #2A1B4D",
".  c #2E1F55",
"X  c #361A5B",
"o  c #2E2255",
"O  c #2C295A",
"+  c #32265B",
"@  c #38235B",
"#  c #371F64",
"$  c #1B3B78",
"%  c #2E2F61",
"&  c #362D67",
"*  c #2F3766",
"=  c #333464",
"-  c #363966",
";  c #373668",
":  c #39396A",
">  c #26347A",
",  c #3D3771",
"<  c #453A5F",
"1  c #442D6F",
"2  c #42316C",
"3  c #3E436D",
"4  c #3B4270",
"5  c #394877",
"6  c #3D4976",
"7  c #48466C",
"8  c #534A6C",
"9  c #4B4978",
"0  c #4A527B",
"q  c #5B5B7A",
"w  c #62497E",
"e  c #BA6300",
"r  c #00FF74",
"t  c #FF8800",
"y  c #263880",
"u  c #493D89",
"i  c #324483",
"p  c #3E5180",
"a  c #3856B1",
"s  c #1E76BA",
"d  c #2F6AB0",
"f  c #414E87",
"g  c #59468C",
"h  c #4C578D",
"j  c #515C83",
"k  c #5B5F83",
"l  c #58568D",
"z  c #5B5E8D",
"x  c #4F4292",
"c  c #55489B",
"v  c #475D99",
"b  c #604D9A",
"n  c #605C93",
"m  c #4C649B",
"M  c #5A6597",
"N  c #52649E",
"B  c #5D699A",
"V  c #626283",
"C  c #626393",
"Z  c #656C96",
"A  c #636C9E",
"S  c #6B7598",
"D  c #7E7E99",
"F  c #605DA5",
"G  c #477AB7",
"H  c #6568A1",
"J  c #677BAA",
"K  c #7677A6",
"L  c #7379A4",
"P  c #6E6DB5",
"I  c #7379B2",
"U  c #3A7AC6",
"Y  c #3C7FD2",
"T  c #4476C2",
"R  c #6B76C9",
"E  c #826C96",
"W  c #887C99",
"Q  c #C96CF6",
"!  c #3887BF",
"~  c #78819D",
"^  c #4A8CBE",
"/  c #6D86AE",
"(  c #7986AA",
")  c #6586B3",
"_  c #7884B2",
"`  c #7D8FB4",
"'  c #7C92B9",
"]  c #71E1A4",
"[  c #288DC3",
"{  c #3E85CC",
"}  c #3895CA",
"|  c #379CD0",
" . c #2DB1DF",
".. c #319FE3",
"X. c #3CA8E8",
"o. c #30B5E6",
"O. c #4786C7",
"+. c #449FCB",
"@. c #4A98CA",
"#. c #5490C2",
"$. c #4E9BD7",
"%. c #48A6DA",
"&. c #5CB1D4",
"*. c #49BBE4",
"=. c #55B8E7",
"-. c #57BBF0",
";. c #4AC3E4",
":. c #51C8EB",
">. c #58D2E8",
",. c #5CD8ED",
"<. c #4CCCF0",
"1. c #53D3F4",
"2. c #62DAEF",
"3. c #70CFFF",
"4. c #62D9F2",
"5. c #70DDF5",
"6. c #6BE2F7",
"7. c #66E4FB",
"8. c #77F2FD",
"9. c #84849D",
"0. c #96879A",
"q. c #878AAA",
"w. c #9185A2",
"e. c #8B93A8",
"r. c #9598A6",
"t. c #888BB7",
"y. c #9B8DBC",
"u. c #8B99B8",
"i. c #9B9AB7",
"p. c #AC9EB4",
"a. c #9AA1B9",
"s. c #A3A9B6",
"d. c #A4ABBB",
"f. c #B0B5BA",
"g. c #92EABF",
"h. c #8E93C4",
"j. c #949DC1",
"k. c #88A5C9",
"l. c #97A9C7",
"z. c #97B1CC",
"x. c #97ADD7",
"c. c #A3ACC2",
"v. c #B8ABC9",
"b. c #A8B3C4",
"n. c #A9BACA",
"m. c #B4B3C1",
"M. c #B8B9C6",
"N. c #A9BBD3",
"B. c #FE84D4",
"V. c #C4BDC9",
"C. c #EBB8DF",
"Z. c #D891F6",
"A. c #C5B6F2",
"S. c #9EC4DF",
"D. c #B8C4D3",
"F. c #BFCBD2",
"G. c #BCCBDF",
"H. c #BBD0DB",
"J. c #AEEDD2",
"K. c #80CBE3",
"L. c #80DBFF",
"P. c #AEC9EA",
"I. c #BCC4E0",
"U. c #94EFF9",
"Y. c #A1E2ED",
"T. c #ABFFFF",
"R. c #C2C3C8",
"E. c #D8C0C5",
"W. c #C3C8D5",
"Q. c #CBCFDA",
"!. c #DDC4D6",
"~. c #CAD3D8",
"^. c #D6D6DA",
"/. c #CDDAE3",
"(. c #FFC6E9",
"). c #D4E6EA",
"_. c #DBEFF3",
"`. c #E5E1F4",
/* pixels */
"t t t t t t t t t t e e t t t t t t t t t t t t t t t t t t t t ",
"t t t t t t t t t t t e e t t t t t t t t t t t t t t t t t t t ",
"t t t t t t t t t t t t t t t t t t t t t t t t t t t t t e t t ",
"t t t t t t t t t t t t t t t t t t t t t t t t t t t t t t t t ",
"t t t t t t t t t t t t t t t 3 4 t t t t t t t t t t t t t t t ",
"t t t t t t t t t t p 4 0 7 8 W.M.< 0 6 5 t t t t t t t t t t t ",
"t t t t t t t t t 4 q e.H.q.d.J.J.w.d.W.( 7 6 t t t t t e t t t ",
"t t t t t t t t 6 j ).W.E ; c.] g.q., W ).F.3 t t t t e t e t t ",
"t t e t e t t * V _.( p K W S S.x.L e.H f u.).7 t t t t t t t t ",
"t t t e t t 5 j W.q i p.M.k.h y > H c.R.W $ 9.M.- t t t t t t t ",
"t t t t t t - n.0.x b.Q.G } >.2.,.;.@.) `.( u f.u.- t t t t t t ",
"t t t t t * ~ d.m y.Q.s U.8...T U o.T.Y.! ^._ B ~.0 6 t t t t t ",
"t t t t t % N.q._ V.G 4.:.O.r r r r U ,.*.' V.I t.` * t t t t t ",
"t t e t t @ N 2 P D.@.7.R r r r r r r d 6.#.G.c : v o t t t t t ",
"t t t t t 0 f.M.e.N ;.$.r r r r r r r r <.| S i.E.s.- t t t t t ",
"t t t t O l.L.=././  .{ r r r r r r r r X.[ _ !.B.(.~ - t t t t ",
"t t t t O t.3.-.z.v  .Y r r r r r r r r X.} m v.B.C.k * t t t t ",
"t t t t t X ( ` l N ;.%.r r r r r r r r <.+.M h a.C X t t t t t ",
"t t e t t X x & P W.@.5.a r r r r r r T 6.' W.c & x + t t t t t ",
"t t t t t O ` q.b v.` :.1.d r r r r @.7.%.c.y.g b.B ; t t t t t ",
"t t t t t t 9 D.w I ~.^ K.8.%.U O.*.U.&.k.F.F E H.% t t t t t t ",
"t t t t t t O j.i.k ' ^.k.O.<.<.<.*.O.N.W.) C G.M ; t t t t t t ",
"t t t t t t t % u.c.l Z M.m.K _ J t.V.d.M A D.Z o t t e t t t t ",
"t t t t t t t t 9 P.R.Z n z s.`.).e.z l D ^.x.& t t t t e t t t ",
"t t t t t t t t t 2 h.N.i.M m.Q Z.r.C i.I.I & t t t t e t t t t ",
"t t t t t t t t t t o 1 t.K S A.A.k t.K # % t t t t t t t t t t ",
"t t t t t t t t t t t t % & . H l   & = t t t t t t t t t t t t ",
"t t t t t t e t e t t t t t e : 4 t t t t t t t t t t t t t t t ",
"t t t t t t t e t t t t t t e t t t t t t t t t t t t t t t t t ",
"t t t t t t t t t t t t t t t t t t t t t t t t t t t t t t t t ",
"t t t t t t t t t t t t t t t t t t t t t t t t t t t e e t t t ",
"t t t t t t t t t t t t t t t t t t t t t t t t t t e e t t t t "
};
