/* XPM */
static char *result[] = {
/* columns rows colors chars-per-pixel */
"32 32 174 2 ",
"   c #2A1B4D",
".  c #2E1F55",
"X  c #361A5B",
"o  c #2E2255",
"O  c #2C295A",
"+  c #32265B",
"@  c #38235B",
"#  c #371F64",
"$  c #1B3B78",
"%  c #2E2F61",
"&  c #362D67",
"*  c #333464",
"=  c #363966",
"-  c #39396A",
";  c #2B3670",
":  c #3D3771",
">  c #453A5F",
",  c #442D6F",
"<  c #42316C",
"1  c #3E436D",
"2  c #3B4270",
"3  c #394877",
"4  c #3D4976",
"5  c #48466C",
"6  c #534A6C",
"7  c #4B4978",
"8  c #4A527B",
"9  c #5B5B7A",
"0  c #62497E",
"q  c #BA6300",
"w  c #2CC873",
"e  c #00FF74",
"r  c #FF8800",
"t  c #493D89",
"y  c #324483",
"u  c #3E5180",
"i  c #3856B1",
"p  c #1E76BA",
"a  c #2F6AB0",
"s  c #414E87",
"d  c #59468C",
"f  c #4C578D",
"g  c #515C83",
"h  c #5B5F83",
"j  c #58568D",
"k  c #5B5E8D",
"l  c #4F4292",
"z  c #55489B",
"x  c #475D99",
"c  c #604D9A",
"v  c #605C93",
"b  c #4C649B",
"n  c #57659A",
"m  c #5D699A",
"M  c #626283",
"N  c #626393",
"B  c #656C96",
"V  c #636C9E",
"C  c #6B7598",
"Z  c #7E7E99",
"A  c #605DA5",
"S  c #477AB7",
"D  c #6568A1",
"F  c #677BAA",
"G  c #7677A6",
"H  c #7379A4",
"J  c #6E6DB5",
"K  c #7379B2",
"L  c #3A7AC6",
"P  c #3C7FD2",
"I  c #4476C2",
"U  c #6B76C9",
"Y  c #826C96",
"T  c #887C99",
"R  c #C96CF6",
"E  c #78819D",
"W  c #4A8CBE",
"Q  c #6586B3",
"!  c #7884B2",
"~  c #7D8FB4",
"^  c #7C92B9",
"/  c #71E1A4",
"(  c #288DC3",
")  c #3E85CC",
"_  c #3895CA",
"`  c #379CD0",
"'  c #2DB1DF",
"]  c #319FE3",
"[  c #3CA8E8",
"{  c #30B5E6",
"}  c #4786C7",
"|  c #449FCB",
" . c #4A98CA",
".. c #5490C2",
"X. c #4E9BD7",
"o. c #6897C2",
"O. c #48A6DA",
"+. c #5CB1D4",
"@. c #49BBE4",
"#. c #55B8E7",
"$. c #57BBF0",
"%. c #4AC3E4",
"&. c #4DC6EC",
"*. c #51C8EB",
"=. c #58D2E8",
"-. c #5CD8ED",
";. c #4CCCF0",
":. c #50C8F2",
">. c #53D3F4",
",. c #70CFFF",
"<. c #62D9F2",
"1. c #70DDF5",
"2. c #6BE2F7",
"3. c #66E4FB",
"4. c #77F2FD",
"5. c #8B869F",
"6. c #96879A",
"7. c #878AAA",
"8. c #9185A2",
"9. c #8B93A8",
"0. c #9598A6",
"q. c #888BB7",
"w. c #9B8DBC",
"e. c #8B99B8",
"r. c #9B9AB7",
"t. c #AC9EB4",
"y. c #94A0B0",
"u. c #A3A9B6",
"i. c #A4ABBB",
"p. c #B0B5BA",
"a. c #92EABF",
"s. c #8E93C4",
"d. c #949DC1",
"f. c #88A5C9",
"g. c #97A9C7",
"h. c #97B1CC",
"j. c #97ADD7",
"k. c #A3ACC2",
"l. c #B8ABC9",
"z. c #A8B3C4",
"x. c #A9BACA",
"c. c #B4B3C1",
"v. c #B8B9C6",
"b. c #A9BBD3",
"n. c #FE84D4",
"m. c #C4BDC9",
"M. c #EBB8DF",
"N. c #D891F6",
"B. c #C5B6F2",
"V. c #9EC4DF",
"C. c #B8C4D3",
"Z. c #BFCBD2",
"A. c #BCCBDF",
"S. c #BBD0DB",
"D. c #AEEDD2",
"F. c #80CBE3",
"G. c #80DBFF",
"H. c #AEC9EA",
"J. c #BCC4E0",
"K. c #94EFF9",
"L. c #A1E2ED",
"P. c #ABFFFF",
"I. c #C2C3C8",
"U. c #D8C0C5",
"Y. c #C3C8D5",
"T. c #CBCFDA",
"R. c #DDC4D6",
"E. c #CAD3D8",
"W. c #D6D6DA",
"Q. c #CDDAE3",
"!. c #FFC6E9",
"~. c #D4E6EA",
"^. c #DBEFF3",
"/. c #E5E1F4",
/* pixels */
"r r r r r r r r r r q q r r r r r r r r r r r r r r r r r r r r ",
"r r r r r r r r r r r q q r r r r r r r r r r r r r r r r r r r ",
"r r r r r r r r r r r r r r r r r r r r r r r r r r r r r q r r ",
"r r r r r r r r r r r r r r r r r r r r r r r r r r r r r r r r ",
"r r r r r r r r r r r r r r r 1 4 r r r r r r r r r r r r r r r ",
"r r r r r r r r r r u ; 8 5 6 A.v.> 8 3 3 r r r r r r r r r r r ",
"r r r r r r r r r 3 9 e.A.5.i.D.D.8.i.Z.E 5 4 r r r r r q r r r ",
"r r r r r r r r 7 8 ~.Z.Y - k./ a.8.: 8.~.Z.4 r r r r q r q r r ",
"r r q r q r r * M ^.! u G T C V.j.H 8.V s d.~.5 r r r r r r r r ",
"r r r q r r 4 g Z.9 y t.v.f.f ; $ D k.v.T $ 5.x.= r r r r r r r ",
"r r r r r r = x.6.t p.T.S ` =.<.<.%.| o.W.7.t p.e.= r r r r r r ",
"r r r r r * E i.b s.T.p K.4.] I L { P.L.) W.! D E.8 4 r r r r r ",
"r r r r r % b.~ ! m.S <.*.} e e e w L -.@.^ v.K q.~ * r r r r r ",
"r r q r r @ n < J C.X.<.U w e e e w w a 2...Y.z - x o r r r r r ",
"r r r r r 8 p.v.0.n &.X.e e w e e w w w &.` H y.U.u.= r r r r r ",
"r r r r O g.G.#.Q.F ' ) e e e e e e e e [ ( ! R.n.!.E * r r r r ",
"r r r r o 7.,.$.h.x ' P e e e e e e e e [ _ b l.n.M.h = r r r r ",
"r r r r r & G ~ j n %.O.w w w e e w e e :. .m f r.N X r r r r r ",
"r r q r r @ l & J Z. .1.i w w e e e w I 2.o.T.z & l + r r r r r ",
"r r r r r O ~ 7.c l.~ *.>.a w e e e  .3.O.i.w.d z.m = r r r r r ",
"r r r r r r 7 C.0 K E.W F.4.O.L } @.K.+.f.C.A Y S.% r r r r r r ",
"r r r r r r O d.r.k ^ W.f.} ;.;.;.@.} b.Y.Q N A.n * r r r r r r ",
"r r r r r r r % e.z.j B v.c.G ! F 7.m.u.v D C.B o r r q r r r r ",
"r r r r r r r r 7 H.I.N v v u./.~.9.n v Z W.j.* r r r r q r r r ",
"r r r r r r r r r < s.b.r.n p.R N.0.N r.J.K & r r r r q r r r r ",
"r r r r r r r r r r o , q.G C B.B.h q.G # % r r r r r r r r r r ",
"r r r r r r r r r r r r % & . D j   & * r r r r r r r r r r r r ",
"r r r r r r q r q r r r r r q - 2 r r r r r r r r r r r r r r r ",
"r r r r r r r q r r r r r r q r r r r r r r r r r r r r r r r r ",
"r r r r r r r r r r r r r r r r r r r r r r r r r r r r r r r r ",
"r r r r r r r r r r r r r r r r r r r r r r r r r r r q q r r r ",
"r r r r r r r r r r r r r r r r r r r r r r r r r r q q r r r r "
};
