/* XPM */
static char *result[] = {
/* columns rows colors chars-per-pixel */
"32 32 183 2 ",
"   c #18032F",
".  c #1F0834",
"X  c #210734",
"o  c #230B34",
"O  c #280539",
"+  c #250D3A",
"@  c #271039",
"#  c #28123D",
"$  c #311A3B",
"%  c #2A0D48",
"&  c #2B1748",
"*  c #32144C",
"=  c #2E1F55",
"-  c #36195A",
";  c #2E2255",
":  c #2C295A",
">  c #32265B",
",  c #38235B",
"<  c #371F64",
"1  c #1B3B78",
"2  c #2E2F61",
"3  c #2F2A6C",
"4  c #362D67",
"5  c #35216A",
"6  c #333464",
"7  c #363966",
"8  c #373668",
"9  c #39396A",
"0  c #352F79",
"q  c #2B3670",
"w  c #3D3771",
"e  c #432551",
"r  c #42316C",
"t  c #3E436E",
"y  c #3B4270",
"u  c #394877",
"i  c #3D4976",
"p  c #46466C",
"a  c #534A6C",
"s  c #4B4978",
"d  c #4A527B",
"f  c #5B5B7A",
"g  c #62497E",
"h  c #BA6300",
"j  c #2CC873",
"k  c #FF8800",
"l  c #303889",
"z  c #493D89",
"x  c #324483",
"c  c #3E5180",
"v  c #3856B1",
"b  c #1E76BA",
"n  c #2F6AB0",
"m  c #414E87",
"M  c #59468C",
"N  c #4C578D",
"B  c #515C83",
"V  c #5B5F83",
"C  c #58568D",
"Z  c #5B5E8D",
"A  c #4F4292",
"S  c #55489B",
"D  c #475D99",
"F  c #595B91",
"G  c #604D9A",
"H  c #536286",
"J  c #4C649B",
"K  c #57659A",
"L  c #5D699A",
"P  c #626283",
"I  c #626393",
"U  c #656C96",
"Y  c #636C9E",
"T  c #6B7598",
"R  c #605DA5",
"E  c #477AB7",
"W  c #6568A1",
"Q  c #677BAA",
"!  c #7677A6",
"~  c #7379A4",
"^  c #6E6DB5",
"/  c #7379B2",
"(  c #3A7AC6",
")  c #3C7FD2",
"_  c #4476C2",
"`  c #826C96",
"'  c #887C99",
"]  c #C96CF6",
"[  c #76829C",
"{  c #4A8CBE",
"}  c #7986AA",
"|  c #6586B3",
" . c #7884B2",
".. c #7D8FB4",
"X. c #7C94B8",
"o. c #71E1A4",
"O. c #288DC3",
"+. c #3E85CC",
"@. c #3895CA",
"#. c #379CD0",
"$. c #2DB1DF",
"%. c #319FE3",
"&. c #3CA8E8",
"*. c #30B5E6",
"=. c #4786C7",
"-. c #449FCB",
";. c #4A98CA",
":. c #5490C2",
">. c #4E9BD7",
",. c #6897C2",
"<. c #48A6DA",
"1. c #5CB1D4",
"2. c #56BAEC",
"3. c #4AC3E4",
"4. c #4DC6EC",
"5. c #58D2E8",
"6. c #5CD8ED",
"7. c #4CCCF0",
"8. c #50C8F2",
"9. c #52CEF0",
"0. c #70CFFF",
"q. c #62D9F2",
"w. c #70DDF5",
"e. c #68E3F9",
"r. c #77F2FD",
"t. c #84849D",
"y. c #8B869F",
"u. c #878AAA",
"i. c #9185A2",
"p. c #8B93A8",
"a. c #9598A6",
"s. c #888BB7",
"d. c #9B8DBC",
"f. c #8B99B8",
"g. c #9B9AB7",
"h. c #AC9EB4",
"j. c #85A1BE",
"k. c #98A1B6",
"l. c #A3A9B6",
"z. c #A4ABBB",
"x. c #B0B5BA",
"c. c #92EABF",
"v. c #8E93C4",
"b. c #949DC1",
"n. c #88A5C9",
"m. c #97A9C7",
"M. c #8FA4D0",
"N. c #97AED3",
"B. c #A3ACC2",
"V. c #B8ABC9",
"C. c #A8B6C7",
"Z. c #B4B3C1",
"A. c #B8B9C6",
"S. c #A9BBD3",
"D. c #FE84D4",
"F. c #C4BDC9",
"G. c #EBB8DF",
"H. c #D891F6",
"J. c #C5B6F2",
"K. c #9EC4DF",
"L. c #BAC2CB",
"P. c #B9C6D7",
"I. c #BFCBD2",
"U. c #BBD0DB",
"Y. c #AEEDD2",
"T. c #80DBFF",
"R. c #AEC9EA",
"E. c #BCC4E0",
"W. c #BED1E8",
"Q. c #94EFF9",
"!. c #A1E2ED",
"~. c #ABFFFF",
"^. c #C2C3C8",
"/. c #DBC2CE",
"(. c #C3C8D5",
"). c #CBCFDA",
"_. c #CAD3D8",
"`. c #D6D6DA",
"'. c #CDDAE3",
"]. c #FFC6E9",
"[. c #D4E6EA",
"{. c #DBEFF3",
"}. c #E5E1F4",
/* pixels */
"k k k k k k k k k k h h k k k k k k k k k k k k k k k k k k k k ",
"k k k k k k k k k k k h h k k k k k k k k k k k k k k k k k k k ",
"k k k k k k k k k k k k k k k k k k k k k k k k k k k k k h k k ",
"k k k k k k k k k k k k k k k k k k k k k k k k k k k k k k k k ",
"k k k k k k k k k k k k k k k t t k k k k k k k k k k k k k k k ",
"k k k k k k k k k k c y i p a I.A.7 d u y k k k k k k k k k k k ",
"k k k k k k k k k u f p.U.p.z.Y.Y.i.z._.} p i k k k k k h k k k ",
"k k k k k k k k i B [.(.` w B.o.c.i.w ' [.I.y k k k k h k h k k ",
"k k h k h k k 6 P {.} c ! ' T K.N.~ p.Y m b.[.p k k k k k k k k ",
"k k k h k k u H I.f x h.A.n.N 0 q W C.L.i.1 t.A.7 k k k k k k k ",
"k k k k k k 7 S.y.z C.).E #.5.q.6.3.;.| `.} z x.f.7 k k k k k k ",
"k k k k k 6 [ B.K d.).b Q.r.%._ ) *.~.!.+.`. .L _.d i k k k k k ",
"k k k k k 2 S.u. .F.E q.4.=.0 % % 3 ( 6.1.,.F. .s...6 k k k k k ",
"k k h k k , K r ^ P.-.e.l e $ o   } W.n e.:.E.S 9 D ; k k k k k ",
"k k k k k d x.Z.p.L 3.>.- o + # . B j.l 8.#.T k./.k.7 k k k k k ",
"k k k k : m.T.2.'.Q $.+.* & # j j +   5 &.O. ./.D.].[ 7 k k k k ",
"k k k k : u.0.2.m.J *.) &   X j j & o 5 &.@.J V.D.G.V 7 k k k k ",
"k k k k k , / ..N K 3.<.5 X.t X % @ o l 7.-.L N g.L - k k k k k ",
"k k h k k , A 4 ^ (.;.w.v M.p . + $ e _ e.X./.S 4 z > k k k k k ",
"k k k k k : X.t.G V...7.9.n % o O 3 >.e.<.m.d.M C.L 8 k k k k k ",
"k k k k k k s P.g / `.{ w.Q.#.+.=.*.Q.1.n.I.R ` W.2 k k k k k k ",
"k k k k k k > b.g.Z X.`.M.=.3.7.9.3.=.S.(.| I U.Z 7 k k k k k k ",
"k k k k k k k 2 f.C.N U A.Z.! / Q u.^.z.K Y P.Y ; k k h k k k k ",
"k k k k k k k k s R.^.I F I l.}.}.p.Z C ' `.M.6 k k k k h k k k ",
"k k k k k k k k k w v.A.f.L x.] H.a.I g.E./ 4 k k k k h k k k k ",
"k k k k k k k k k k = r s.! T J.J.V f.! < 2 k k k k k k k k k k ",
"k k k k k k k k k k k k 4 4 = Y C & 4 6 k k k k k k k k k k k k ",
"k k k k k k h k h k k k k k h w w k k k k k k k k k k k k k k k ",
"k k k k k k k h k k k k k k h k k k k k k k k k k k k k k k k k ",
"k k k k k k k k k k k k k k k k k k k k k k k k k k k k k k k k ",
"k k k k k k k k k k k k k k k k k k k k k k k k k k k h h k k k ",
"k k k k k k k k k k k k k k k k k k k k k k k k k k h h k k k k "
};
