/* XPM */
static char *result[] = {
/* columns rows colors chars-per-pixel */
"32 32 181 2 ",
"   c #270739",
".  c #2A0D48",
"X  c #2C164C",
"o  c #32144C",
"O  c #2E1F55",
"+  c #36195A",
"@  c #2E2255",
"#  c #2C295A",
"$  c #32265B",
"%  c #38235B",
"&  c #371F64",
"*  c #1B3B78",
"=  c #2E2F61",
"-  c #2F2A6C",
";  c #362D67",
":  c #35216A",
">  c #333464",
",  c #363966",
"<  c #373668",
"1  c #39396A",
"2  c #352F79",
"3  c #3D3771",
"4  c #432551",
"5  c #442C6A",
"6  c #42316C",
"7  c #3E436E",
"8  c #3B4270",
"9  c #394877",
"0  c #3D4976",
"q  c #46466C",
"w  c #534A6C",
"e  c #4B4978",
"r  c #4A527B",
"t  c #5B5B7A",
"y  c #62497E",
"u  c #BA6300",
"i  c #2CC873",
"p  c #00FF74",
"a  c #FF8800",
"s  c #303889",
"d  c #493D89",
"f  c #324483",
"g  c #3E5180",
"h  c #364195",
"j  c #3856B1",
"k  c #1E76BA",
"l  c #2F6AB0",
"z  c #414E87",
"x  c #59468C",
"c  c #4C578D",
"v  c #515C83",
"b  c #5B5F83",
"n  c #58568D",
"m  c #5B5E8D",
"M  c #4F4292",
"N  c #55489B",
"B  c #475D99",
"V  c #604D9A",
"C  c #605C93",
"Z  c #536286",
"A  c #57659A",
"S  c #5D699A",
"D  c #626283",
"F  c #626393",
"G  c #656C96",
"H  c #636C9E",
"J  c #6B7598",
"K  c #605DA5",
"L  c #477AB7",
"P  c #6568A1",
"I  c #677BAA",
"U  c #7677A6",
"Y  c #7379A4",
"T  c #6E6DB5",
"R  c #7379B2",
"E  c #3A7AC6",
"W  c #3C7FD2",
"Q  c #4476C2",
"!  c #826C96",
"~  c #887C99",
"^  c #C96CF6",
"/  c #76829C",
"(  c #4A8CBE",
")  c #6D86AE",
"_  c #7986AA",
"`  c #6586B3",
"'  c #7884B2",
"]  c #7D8FB4",
"[  c #7C94B8",
"{  c #71E1A4",
"}  c #288DC3",
"|  c #3E85CC",
" . c #3895CA",
".. c #379CD0",
"X. c #2DB1DF",
"o. c #319FE3",
"O. c #3CA8E8",
"+. c #30B5E6",
"@. c #4786C7",
"#. c #449FCB",
"$. c #4A98CA",
"%. c #5490C2",
"&. c #4E9BD7",
"*. c #6897C2",
"=. c #48A6DA",
"-. c #5CB1D4",
";. c #49BBE4",
":. c #56BAEC",
">. c #4AC3E4",
",. c #4DC6EC",
"<. c #58D2E8",
"1. c #5CD8ED",
"2. c #4CCCF0",
"3. c #50C8F2",
"4. c #62DAEF",
"5. c #70CFFF",
"6. c #62D9F2",
"7. c #70DDF5",
"8. c #6BE2F7",
"9. c #66E4FB",
"0. c #77F2FD",
"q. c #84849D",
"w. c #8B869F",
"e. c #878AAA",
"r. c #9185A2",
"t. c #8B93A8",
"y. c #9598A6",
"u. c #888BB7",
"i. c #9B8DBC",
"p. c #8B99B8",
"a. c #9B9AB7",
"s. c #AC9EB4",
"d. c #85A1BE",
"f. c #94A0B0",
"g. c #9AA1B9",
"h. c #A3A9B6",
"j. c #A4ABBB",
"k. c #B0B5BA",
"l. c #92EABF",
"z. c #8E93C4",
"x. c #949DC1",
"c. c #88A5C9",
"v. c #97A9C7",
"b. c #8FA4D0",
"n. c #97AED3",
"m. c #A3ACC2",
"M. c #B8ABC9",
"N. c #A8B3C4",
"B. c #A9BACA",
"V. c #B4B3C1",
"C. c #B8B9C6",
"Z. c #A9BBD3",
"A. c #FE84D4",
"S. c #C4BDC9",
"D. c #EBB8DF",
"F. c #D891F6",
"G. c #C5B6F2",
"H. c #9EC4DF",
"J. c #BAC2CB",
"K. c #B9C6D7",
"L. c #BFCBD2",
"P. c #BBD0DB",
"I. c #AEEDD2",
"U. c #80DBFF",
"Y. c #AEC9EA",
"T. c #BCC4E0",
"R. c #BED1E8",
"E. c #94EFF9",
"W. c #A1E2ED",
"Q. c #ABFFFF",
"!. c #C2C3C8",
"~. c #DBC2CE",
"^. c #C3C8D5",
"/. c #CBCFDA",
"(. c #CAD3D8",
"). c #D6D6DA",
"_. c #CDDAE3",
"`. c #FFC6E9",
"'. c #D4E6EA",
"]. c #DBEFF3",
"[. c #E5E1F4",
/* pixels */
"a a a a a a a a a a u u a a a a a a a a a a a a a a a a a a a a ",
"a a a a a a a a a a a u u a a a a a a a a a a a a a a a a a a a ",
"a a a a a a a a a a a a a a a a a a a a a a a a a a a a a u a a ",
"a a a a a a a a a a a a a a a a a a a a a a a a a a a a a a a a ",
"a a a a a a a a a a a a a a a 7 7 a a a a a a a a a a a a a a a ",
"a a a a a a a a a a g 8 r q w K.J.6 r 0 8 a a a a a a a a a a a ",
"a a a a a a a a a 9 t t.P.e.h.I.I.w.j.P./ w 9 a a a a a u a a a ",
"a a a a a a a a 0 v '.^.! < j.{ l.q.6 r.'.L.9 a a a a u a u a a ",
"a a u a u a a > D ].) z Y ~ J H.n.Y r.H z x.'.q a a a a a a a a ",
"a a a u a a 9 Z L.t f s.C.v.c s * H N.C.~ * q.C.> a a a a a a a ",
"a a a a a a , B.w.d k./.L  .<.4.6.;.#.*.).e.d k.p., a a a a a a ",
"a a a a a , / m.A i./.k E.0.o.Q E +.Q.W.| ).' H (.r 0 a a a a a ",
"a a a a a = Z.e.' S.L 6.,.Q 2 . o 2 E 1.;.[ C.R p.u.= a a a a a ",
"a a u a a % A 6 T K.#.9.h 4 i i i Y R.l 8.%.T.N 1 B @ a a a a a ",
"a a a a a r k.V.t.S ,.&.+ i p p p Z d.h 2...Y f.~.a., a a a a a ",
"a a a a # v.U.:._.I X.| o i p p p p i : O.} _ ~.A.`./ , a a a a ",
"a a a a $ e.5.:.n.B +.W X i p p p p i : =. .B M.A.D.b , a a a a ",
"a a a a a + _ [ v A >.=.: [ q p p p i s 3.#.S c g.F + a a a a a ",
"a a u a a : M - T ^.$.7.j b.8 i i i 5 L 7.*./.N - M $ a a a a a ",
"a a a a a # ] e.V M.[ 2.2.l .     - $.9.=.m.i.x N.S < a a a a a ",
"a a a a a a r J.y R (.( 7.0.=.L @.;.E.-.c.L.K ! R.= a a a a a a ",
"a a a a a a # x.a.m [ ).b.@.>.,.2.;.@.Z.^.` F P.m > a a a a a a ",
"a a a a a a a : p.N.n G C.V.U ' I e.C.h.m P K.G @ a a u a a a a ",
"a a a a a a a a e Y.!.F C m h.[.[.e.S n / ).n.; a a a a u a a a ",
"a a a a a a a a a 3 z.K.p.m k.^ F.y.A s.T.R ; a a a a u a a a a ",
"a a a a a a a a a a O 5 u.U J G.G.b u.U & = a a a a a a a a a a ",
"a a a a a a a a a a a a ; ; O P n X < = a a a a a a a a a a a a ",
"a a a a a a u a u a a a a a u 1 8 a a a a a a a a a a a a a a a ",
"a a a a a a a u a a a a a a u a a a a a a a a a a a a a a a a a ",
"a a a a a a a a a a a a a a a a a a a a a a a a a a a a a a a a ",
"a a a a a a a a a a a a a a a a a a a a a a a a a a a u u a a a ",
"a a a a a a a a a a a a a a a a a a a a a a a a a a u u a a a a "
};
