/* XPM */
static char *result[] = {
/* columns rows colors chars-per-pixel */
"32 32 186 2 ",
"   c #18032F",
".  c #1F0834",
"X  c #210734",
"o  c #230B34",
"O  c #280539",
"+  c #250D3A",
"@  c #281036",
"#  c #26103B",
"$  c #28123D",
"%  c #311A3B",
"&  c #2A0D48",
"*  c #2B1748",
"=  c #32144C",
"-  c #2E1F55",
";  c #36195A",
":  c #2E2255",
">  c #2C295A",
",  c #38235B",
"<  c #371F64",
"1  c #1B3B78",
"2  c #2E2F61",
"3  c #2F2A6C",
"4  c #362D67",
"5  c #35216A",
"6  c #333464",
"7  c #363966",
"8  c #373668",
"9  c #39396A",
"0  c #352F79",
"q  c #2B3670",
"w  c #3D3771",
"e  c #432551",
"r  c #442C6A",
"t  c #42316C",
"y  c #3E436E",
"u  c #3B4270",
"i  c #394877",
"p  c #3D4976",
"a  c #46466C",
"s  c #534A6C",
"d  c #4B4978",
"f  c #4A527B",
"g  c #5B5B7A",
"h  c #62497E",
"j  c #BA6300",
"k  c #FF8800",
"l  c #303889",
"z  c #493D89",
"x  c #324483",
"c  c #3E5180",
"v  c #364195",
"b  c #3856B1",
"n  c #1E76BA",
"m  c #2F6AB0",
"M  c #414E87",
"N  c #59468C",
"B  c #4C578D",
"V  c #515C83",
"C  c #5B5F83",
"Z  c #58568D",
"A  c #5B5E8D",
"S  c #4F4292",
"D  c #55489B",
"F  c #475D99",
"G  c #595B91",
"H  c #675F8D",
"J  c #605C93",
"K  c #536286",
"L  c #4C649B",
"P  c #57659A",
"I  c #5D699A",
"U  c #626283",
"Y  c #626393",
"T  c #656C96",
"R  c #636C9E",
"E  c #6B7598",
"W  c #7E7E99",
"Q  c #605DA5",
"!  c #477AB7",
"~  c #6568A1",
"^  c #677BAA",
"/  c #7677A6",
"(  c #7379A4",
")  c #6E6DB5",
"_  c #7379B2",
"`  c #3C7FD2",
"'  c #4476C2",
"]  c #826C96",
"[  c #887C99",
"{  c #C96CF6",
"}  c #76829C",
"|  c #4A8CBE",
" . c #7986AA",
".. c #6586B3",
"X. c #7884B2",
"o. c #7D8FB4",
"O. c #7C94B8",
"+. c #71E1A4",
"@. c #288DC3",
"#. c #3E85CC",
"$. c #3895CA",
"%. c #379CD0",
"&. c #2DB1DF",
"*. c #319FE3",
"=. c #3CA8E8",
"-. c #30B5E6",
";. c #4786C7",
":. c #449FCB",
">. c #4A98CA",
",. c #5490C2",
"<. c #4E9BD7",
"1. c #6897C2",
"2. c #48A6DA",
"3. c #5CB1D4",
"4. c #49BBE4",
"5. c #56BAEC",
"6. c #4AC3E4",
"7. c #4DC6EC",
"8. c #58D2E8",
"9. c #5CD8ED",
"0. c #4CCCF0",
"q. c #50C8F2",
"w. c #52CEF0",
"e. c #62DAEF",
"r. c #70CFFF",
"t. c #62D9F2",
"y. c #70DDF5",
"u. c #6BE2F7",
"i. c #66E4FB",
"p. c #77F2FD",
"a. c #84849D",
"s. c #8B869F",
"d. c #878AAA",
"f. c #9185A2",
"g. c #8B93A8",
"h. c #9598A6",
"j. c #888BB7",
"k. c #9B8DBC",
"l. c #8B99B8",
"z. c #AC9EB4",
"x. c #94A0B0",
"c. c #9AA1B9",
"v. c #A3A9B6",
"b. c #A4ABBB",
"n. c #B0B5BA",
"m. c #92EABF",
"M. c #8E93C4",
"N. c #949DC1",
"B. c #88A5C9",
"V. c #97A9C7",
"C. c #8FA4D0",
"Z. c #97AED3",
"A. c #A3ACC2",
"S. c #B8ABC9",
"D. c #A8B6C7",
"F. c #B4B3C1",
"G. c #B8B9C6",
"H. c #A9BBD3",
"J. c #FE84D4",
"K. c #C4BDC9",
"L. c #EBB8DF",
"P. c #D891F6",
"I. c #C5B6F2",
"U. c #9EC4DF",
"Y. c #BAC2CB",
"T. c #B9C6D7",
"R. c #BFCBD2",
"E. c #BBD0DB",
"W. c #AEEDD2",
"Q. c #80DBFF",
"!. c #AEC9EA",
"~. c #BCC4E0",
"^. c #94EFF9",
"/. c #A1E2ED",
"(. c #ABFFFF",
"). c #C2C3C8",
"_. c #DBC2CE",
"`. c #C3C8D5",
"'. c #CBCFDA",
"]. c #CAD3D8",
"[. c #D6D6DA",
"{. c #CDDAE3",
"}. c #FFC6E9",
"|. c #D4E6EA",
" X c #DBEFF3",
".X c #E5E1F4",
/* pixels */
"k k k k k k k k k k j j k k k k k k k k k k k k k k k k k k k k ",
"k k k k k k k k k k k j j k k k k k k k k k k k k k k k k k k k ",
"k k k k k k k k k k k k k k k k k k k k k k k k k k k k k j k k ",
"k k k k k k k k k k k k k k k k k k k k k k k k k k k k k k k k ",
"k k k k k k k k k k k k k k k 9 u k k k k k k k k k k k k k k k ",
"k k k k k k k k k k c 9 f a s E.Y.t f p u k k k k k k k k k k k ",
"k k k k k k k k k u g g.E.f.b.W.W.f.b.E.} s i k k k k k j k k k ",
"k k k k k k k k p V |.T.W w A.+.m.a.t f.|.R.i k k k k j k j k k ",
"k k j k j k k 6 U  X .c / [ E U.Z.( g.R M N.|.s k k k k k k k k ",
"k k k j k k i K R.g x z.G.B.B q q R D.Y.f.1 a.D.7 k k k k k k k ",
"k k k k k k 7 H.s.z D.'.! %.8.e.9.4.>...[. .z n.l.7 k k k k k k ",
"k k k k k 6 } A.P k.'.n ^.p.*.' ` -.(./.#.[.X.I ].f p k k k k k ",
"k k k k k 2 H.d.X.K.! t.7.;.0 * & 0 n e.4.j.G.X.j.o.6 k k k k k ",
"k k j k k , P t ) T.>.i.v e $ +    .{.m u.,.~.D t F : k k k k k ",
"k k k k k f n.F.g.I 6.<.; o + $ . K M.l 0.%.E c._.x.7 k k k k k ",
"k k k k > V.Q.5.{.^ &.#.= @ $ $ & .   5 =.@.o._.J.}.} 6 k k k k ",
"k k k k > d.r.5.V.F -.` =   + $ # $ # 5 2.$.L S.J.L.C 7 k k k k ",
"k k k k k < / O.A P 6.2.5 O.y X $ # o l q.:.I B c.Y ; k k k k k ",
"k k j k k , S 4 ) R.>.u.b C.u X # % e ' u.1.`.D 3 z 4 k k k k k ",
"k k k k k > O.f.D S.o.0.w.m & + O 3 <.i.2.A.k.N D.I 8 k k k k k ",
"k k k k k k d Y.h _ ].| y.p.2.! ;.-.^.3.O.E.Q ] E.2 k k k k k k ",
"k k k k k k > B.z.A O.[.C.;.6.7.w.6.;.Y.E...H E.G 6 k k k k k k ",
"k k k k k k k 5 l.D.B T G.F./  .^ d.K.b.I ~ T.R : k k j k k k k ",
"k k k k k k k k d !.).Y J A v..X.Xg.A Z [ ].Z.4 k k k k j k k k ",
"k k k k k k k k k w M.T.l.Z F.{ P.h.P z.~._ 4 k k k k j k k k k ",
"k k k k k k k k k k - r j./ E I.I.C j./ < 4 k k k k k k k k k k ",
"k k k k k k k k k k k k 4 4 : ~ Z * 8 2 k k k k k k k k k k k k ",
"k k k k k k j k j k k k k k j 9 u k k k k k k k k k k k k k k k ",
"k k k k k k k j k k k k k k j k k k k k k k k k k k k k k k k k ",
"k k k k k k k k k k k k k k k k k k k k k k k k k k k k k k k k ",
"k k k k k k k k k k k k k k k k k k k k k k k k k k k j j k k k ",
"k k k k k k k k k k k k k k k k k k k k k k k k k k j j k k k k "
};
