/* XPM */
static char *result[] = {
/* columns rows colors chars-per-pixel */
"32 32 3 1 ",
"  c #249FDE",
". c #20D6C7",
"X c #A6FCDB",
/* pixels */
"................................",
"................................",
"................................",
"................................",
"X.............XX..X..........XX.",
"................................",
"................................",
"................................",
"................................",
"................................",
"................................",
"........    ............ ..     ",
"................................",
"................................",
"................................",
"XX.X........................X.XX",
"................................",
"................................",
"................................",
"................................",
"................................",
"................................",
"................................",
"................................",
".XXXX................XXXX.......",
"................................",
"................................",
"................................",
"........    . ..................",
"................................",
"................................",
"................................"
};
