/* XPM */
static char *efe92b21ed3543cca025c3d55975875aI0AxM1o4hSgL9XQ6[] = {
/* columns rows colors chars-per-pixel */
"32 32 6 1 ",
"  c #432B4F",
". c #BA6300",
"X c #FF8800",
"o c #82468F",
"O c #AB44E3",
"+ c #ECE4F2",
/* pixels */
"XXXXXXXXXX..XXXXXXXXXXXXXXXXXXXX",
"XXXXXXXXXXX..XXXXXXXXXXXXXXXXXXX",
"XXXXXXXXXXXXXXXXXXXXXXXXXXXXX.XX",
"XXXXXXXXXXXXXXXXXXXXXXXXXXXXXXXX",
"XXXXXXXXXXXXXXXXXXXXXXXXXXXXXXXX",
"XXXXXXXXXXXXXXXXXXXXXXXXXXXXXXXX",
"XXXXXXXXXXXXXXXXXXXX.XXXXXXX.XXX",
"XXXXXXXXXXX.XXXXXXX.XXXXXXX.X.XX",
"XX.X.XXXXXXX.XXXXXXX.XXXXXXXXXXX",
"XXX.XXXXXXX.XXXXXXXXXXXXXXXXXXXX",
"XXXXXXXXXXXXXXXXXXXXXX    XXXXXX",
"XXXXXX           XXXX OO   XXXXX",
"XXXX  ooooooooooo  X OO + O XXXX",
"XX.XXX    oooooooo   OOO+ OO  XX",
"   XXXXXXX  ooooo O OOOOOOOooo X",
"XXX           OOOOO OO OOOOoo XX",
"XXXXXXXXXX  OOOOOOOOOO       XXX",
"XXXXXXXXXXXX  OOOOOO  XXXXXXXXXX",
"XX.XXXX.XXXXXX      XXXXXXXXXXXX",
"XXXXXX.XXXXXXXX   XXXXXXXXXXXXXX",
"XXXXXXX.XXXXXX XXXXXXXXXXXXXXXXX",
"XXXXXXXXXXXXXXXXXXXXXXXXXXXXXXXX",
"XXXXXXXXXXXXXXXXXXX.XXXXXXX.XXXX",
"XXXXXXXXXXXXXXXXXX.X.XXXXXXX.XXX",
"XXXXXXXXXXXXXXXXXXXXXXXXXXX.XXXX",
"XXXXXXXXXXXXXXXXXXXXXXXXXXXXXXXX",
"XXXXXXXXXXXXXXX.XXXXXXXXXXXXXXXX",
"XXXXXX.X.XXXXX..XXXXXXXXXXXXXXXX",
"XXXXXXX.XXXXXX.XXXXXXXXXXXXXXXXX",
"XXXXXXXXXXXXXXXXXXXXXXXXXXXXXXXX",
"XXXXXXXXXXXXXXXXXXXXXXXXXXX..XXX",
"XXXXXXXXXXXXXXXXXXXXXXXXXX..XXXX"
};
