/* XPM */
static char *f5fa3452044a4d2fae83a7d113d530eaWK7cZ3BKLOGXzO3D[] = {
/* columns rows colors chars-per-pixel */
"32 32 6 1 ",
"  c #410000",
". c #B90000",
"X c #FF2626",
"o c #BA6300",
"O c #FF8800",
"+ c #ECE4F2",
/* pixels */
"OOOOOOOOOOooOOOOOOOOOOOOOOOOOOOO",
"OOOOOOOOOOOooOOOOOOOOOOOOOOOOOOO",
"OOOOOOOOOOOOOOOOOOOOOOOOOOOOOoOO",
"OOOOOOOOOOOOOOOOOOOOOOOOOOOOOOOO",
"OOOOOOOOOOOOOOOOOOOOOOOOOOOOOOOO",
"OOOOOOOOOOOOOOOOOOOOOOOOOOOOOOOO",
"OOOOOOOOOOOOOOOOOOOOoOOOOOOOoOOO",
"OOOOOOOOOOOoOOOOOOOoOOOOOOOoOoOO",
"OOoOoOOOOOOOoOOOOOOOoOOOOOOOOOOO",
"OOOoOO    OoOOOOOOOOOOOOOOOOOOOO",
"OOOOO   XX OOOOOOOOOOOOOOOOOOOOO",
"OOOO X + XX OOOOOOOOOOOOOOOOOOOO",
"OO  XX +XXX           OOOOOOOOOO",
"O ...XXXXXXX ..... XXX     OOOOO",
"OO ..XXXX XX ..... X  OOOOO  OOO",
"OOO       XX....... ooOOOOOOO OO",
"OOOOOOOOOO   ....... OOOOOOOOO O",
"OOOOOOOOOOOO ........ OOOOOOOOOO",
"OOoOOOOoOOOO ......... OOOOOOOOO",
"OOOOOOoOOOOOO .........  OOOOOOO",
"OOOOOOOoOOOOOO .......... OOOOOO",
"OOOOOOOOOOOOOOO   ........  OOOO",
"OOOOOOOOOOOOOOOOOO        OoOOOO",
"OOOOOOOOOOOOOOOOOOoOoOOOOOOOoOOO",
"OOOOOOOOOOOOOOOOOOOOOOOOOOOoOOOO",
"OOOOOOOOOOOOOOOOOOOOOOOOOOOOOOOO",
"OOOOOOOOOOOOOOOoOOOOOOOOOOOOOOOO",
"OOOOOOoOoOOOOOooOOOOOOOOOOOOOOOO",
"OOOOOOOoOOOOOOoOOOOOOOOOOOOOOOOO",
"OOOOOOOOOOOOOOOOOOOOOOOOOOOOOOOO",
"OOOOOOOOOOOOOOOOOOOOOOOOOOOooOOO",
"OOOOOOOOOOOOOOOOOOOOOOOOOOooOOOO"
};
