/* XPM */
static char *result[] = {
/* columns rows colors chars-per-pixel */
"32 32 6 1 ",
"  c #410000",
". c #B90000",
"X c #FF2626",
"o c #BA6300",
"O c #FF8800",
"+ c #ECE4F2",
/* pixels */
"OOOOOOOOOOooOOOOOOOOOOOOOOOOOOOO",
"OOOOOOOOOOOooOOOOOOOOOOOOOOOOOOO",
"OOOOOOOOOOOOOOOOOOOOOOOOOOOOOoOO",
"OOOOOOOOOOOOOOOOOOOOOOOOOOOOOOOO",
"OOOOOOOOOOOOOOOOOOOOOOOOOOOOOOOO",
"OOOOOOOOOOOOOOOOOOOOOOOOOOOOOOOO",
"OOOOOOOOOOOOOOOOOOOOoOOOOOOOoOOO",
"OOOOOOOOOOOoOOOOOOOoOOOOOOOoOoOO",
"OOoOoOOOOOOOoOOOOOOOoOOOOOOOOOOO",
"OOOoOOOOOO      OOOOOOOOOOOOOOOO",
"OOOOOOOO  ...... OOOOOOOOOOOOOOO",
"OOOOOOO ......... OOOOOOOOOOOOOO",
"OOOOOO ........... OOO    OOOOOO",
"OOoOO ............. O XX   OOOOO",
" OOO ..............  XX + X OOOO",
"O OOO   .......... O XXX+ XX  OO",
"OO  OOOO   ...... X XXXXXXX... O",
"OOOO          ...XX XX XXXX.. OO",
"OOoOOOOoOO  XXXXXXXXXX       OOO",
"OOOOOOoOOOOO  XXXXXX  OOOOOOOOOO",
"OOOOOOOoOOOOOO      OOOOOOOOOOOO",
"OOOOOOOOOOOOOOO   OOOOOOOOOOOOOO",
"OOOOOOOOOOOOOO OOOOoOOOOOOOoOOOO",
"OOOOOOOOOOOOOOOOOOoOoOOOOOOOoOOO",
"OOOOOOOOOOOOOOOOOOOOOOOOOOOoOOOO",
"OOOOOOOOOOOOOOOOOOOOOOOOOOOOOOOO",
"OOOOOOOOOOOOOOOoOOOOOOOOOOOOOOOO",
"OOOOOOoOoOOOOOooOOOOOOOOOOOOOOOO",
"OOOOOOOoOOOOOOoOOOOOOOOOOOOOOOOO",
"OOOOOOOOOOOOOOOOOOOOOOOOOOOOOOOO",
"OOOOOOOOOOOOOOOOOOOOOOOOOOOooOOO",
"OOOOOOOOOOOOOOOOOOOOOOOOOOooOOOO"
};
