/* XPM */
static char *result[] = {
/* columns rows colors chars-per-pixel */
"32 32 6 1 ",
"  c #410000",
". c #B90000",
"X c #FF2626",
"o c #BA6300",
"O c #FF8800",
"+ c #ECE4F2",
/* pixels */
"OOOOOOOOOOooOOOOOOOOOOOOOOOOOOOO",
"OOOOOOOOOOOooOOOOOOOOOOOOOOOOOOO",
"OOOOOOOOOOOOOOOOOOOOOOOOOOOOOoOO",
"OOOOOOOOOOOOOOOOOOOOOOOOOOOOOOOO",
"OOOOOOOOOOOOOOOOOOOOOOOOOOOOOOOO",
"OOOOOOOOOOOOOOOOOOOOOOOOOOOOOOOO",
"OOOOOOOOOOOOOOOOOOOOoOOOOOOOoOOO",
"OOOOOOOOOOOoOOOOOOOoOOOOOOOoOoOO",
"OOoOoOOOOOOOoOOOOOOOoOOOOOOOOOOO",
"OOOoOOOOOOOoOOOOOOOOOO    OOOOOO",
"OOOOOOOOOOOOOOOOOOOOO XX   OOOOO",
"OOOOOOOOOOOOOOOOOOOO XX + X OOOO",
"OOOOOOOOOO           XXX+ XX  OO",
"OOoOO     XXX ..... XXXXXXX... O",
"OOO  OOOOO  X ..... XX XXXX.. OO",
"OO OOOOOOOOO .......XX       OOO",
"O OOOOOOOOO .......   OOOOOOOOOO",
"OOOOOOOOOO ........ OOOOOOOOOOOO",
"OOoOOOOoO ......... OOOOOOOOOOOO",
"OOOOOOo  ......... OOOOOOOOOOOOO",
"OOOOOO .......... OOOOOOOOOOOOOO",
"OOOO  ........   OOOOOOOOOOOOOOO",
"OOOOOO        OOOOOoOOOOOOOoOOOO",
"OOOOOOOOOOOOOOOOOOoOoOOOOOOOoOOO",
"OOOOOOOOOOOOOOOOOOOOOOOOOOOoOOOO",
"OOOOOOOOOOOOOOOOOOOOOOOOOOOOOOOO",
"OOOOOOOOOOOOOOOoOOOOOOOOOOOOOOOO",
"OOOOOOoOoOOOOOooOOOOOOOOOOOOOOOO",
"OOOOOOOoOOOOOOoOOOOOOOOOOOOOOOOO",
"OOOOOOOOOOOOOOOOOOOOOOOOOOOOOOOO",
"OOOOOOOOOOOOOOOOOOOOOOOOOOOooOOO",
"OOOOOOOOOOOOOOOOOOOOOOOOOOooOOOO"
};
