/* XPM */
static char *_fea1b19f7ce44839e81a65b0366e3feaHtXRF99WUhkgBX1[] = {
/* columns rows colors chars-per-pixel */
"32 32 6 1 ",
"  c #410000",
". c #B90000",
"X c #FF2626",
"o c #BA6300",
"O c #FF8800",
"+ c #ECE4F2",
/* pixels */
"OOOOOOOOOOooOOOOOOOOOOOOOOOOOOOO",
"OOOOOOOOOOOooOOOOOOOOOOOOOOOOOOO",
"OOOOOOOOOOOOOOOOOOOOOOOOOOOOOoOO",
"OOOOOOOOOOOOOOOOOOOOOOOOOOOOOOOO",
"OOOOOOOOOOOOOOOOOOOOOOOOOOOOOOOO",
"OOOOOOOOOOOOOOOOOOOOOOOOOOOOOOOO",
"OOOOOOOOOOOOOOOOOOOOoOOOOOOOoOOO",
"OOOOOOOOOOOoOOOOOOOoOOOOOOOoOoOO",
"OOoOoOOOOOOOoOOOOOOOoOOOOOOOOOOO",
"OOOoOOOOOOOoOOOO      OOOOOOOOOO",
"OOOOOOOOOOOOOOO ......  OOOOOOOO",
"OOOOOOOOOOOOOO ......... OOOOOOO",
"OOOOOO    OOO ........... OOOOOO",
"OOoOO   XX O ............. OOOOO",
"OOOO X + XX  .............. OOO ",
"OO  XX +XXX O ..........   OOO O",
"O ...XXXXXXX X ......   OOOO  OO",
"OO ..XXXX XX XX...          OOOO",
"OOo       XXXXXXXXXX  OOOOOOOOOO",
"OOOOOOoOOO  XXXXXX  OOOOOOOOOOOO",
"OOOOOOOoOOOO      OOOOOOOOOOOOOO",
"OOOOOOOOOOOOOO   OOOOOOOOOOOOOOO",
"OOOOOOOOOOOOOOOOO OoOOOOOOOoOOOO",
"OOOOOOOOOOOOOOOOOOoOoOOOOOOOoOOO",
"OOOOOOOOOOOOOOOOOOOOOOOOOOOoOOOO",
"OOOOOOOOOOOOOOOOOOOOOOOOOOOOOOOO",
"OOOOOOOOOOOOOOOoOOOOOOOOOOOOOOOO",
"OOOOOOoOoOOOOOooOOOOOOOOOOOOOOOO",
"OOOOOOOoOOOOOOoOOOOOOOOOOOOOOOOO",
"OOOOOOOOOOOOOOOOOOOOOOOOOOOOOOOO",
"OOOOOOOOOOOOOOOOOOOOOOOOOOOooOOO",
"OOOOOOOOOOOOOOOOOOOOOOOOOOooOOOO"
};
